<?xml version="1.0" encoding="UTF-8" standalone="no"?>
<!-- Created with Inkscape (http://www.inkscape.org/) -->

<svg
   width="84.184853mm"
   height="84.184868mm"
   viewBox="0 0 84.184853 84.184868"
   version="1.1"
   id="svg1"
   inkscape:version="1.4.4 (dcaf3e7d9e, 2026-05-05)"
   sodipodi:docname="calc icon.svg"
   xmlns:inkscape="http://www.inkscape.org/namespaces/inkscape"
   xmlns:sodipodi="http://sodipodi.sourceforge.net/DTD/sodipodi-0.dtd"
   xmlns="http://www.w3.org/2000/svg"
   xmlns:svg="http://www.w3.org/2000/svg">
  <sodipodi:namedview
     id="namedview1"
     pagecolor="#ffffff"
     bordercolor="#000000"
     borderopacity="0.25"
     inkscape:showpageshadow="2"
     inkscape:pageopacity="0.0"
     inkscape:pagecheckerboard="0"
     inkscape:deskcolor="#d1d1d1"
     inkscape:document-units="mm"
     inkscape:zoom="1.01"
     inkscape:cx="481.68317"
     inkscape:cy="585.14851"
     inkscape:window-width="948"
     inkscape:window-height="987"
     inkscape:window-x="20"
     inkscape:window-y="20"
     inkscape:window-maximized="0"
     inkscape:current-layer="layer1">
    <inkscape:page
       x="0"
       y="0"
       width="84.184853"
       height="84.184868"
       id="page2"
       margin="0"
       bleed="0" />
  </sodipodi:namedview>
  <defs
     id="defs1" />
  <g
     inkscape:label="Layer 1"
     inkscape:groupmode="layer"
     id="layer1"
     transform="translate(-66.406695,-99.871471)">
    <path
       id="rect1"
       style="stroke-width:0.264583"
       d="m 78.694545,99.871475 h 59.609145 c 6.80747,0 12.28786,5.480385 12.28786,12.287855 v 59.60915 c 0,6.80747 -5.48039,12.28785 -12.28786,12.28785 H 78.694545 c -6.80747,0 -12.287852,-5.48038 -12.287852,-12.28785 v -59.60915 c 0,-6.80747 5.480382,-12.287855 12.287852,-12.287855 z" />
    <path
       id="rect1-3"
       style="fill:#2b2d42;stroke-width:0.247604"
       d="m 80.607195,102.57268 h 55.783845 c 6.37061,0 11.4993,5.12869 11.4993,11.4993 v 55.78384 c 0,6.37061 -5.12869,11.4993 -11.4993,11.4993 H 80.607195 c -6.370612,0 -11.4993,-5.12869 -11.4993,-11.4993 v -55.78384 c 0,-6.37061 5.128688,-11.4993 11.4993,-11.4993 z" />
    <path
       id="rect1-3-1-3-6"
       style="fill:#edf2f4;stroke-width:0.065965"
       d="m 85.199174,132.41151 c 5.813873,0 10.494355,4.68049 10.494355,10.49436 0,5.81387 -4.680482,10.49435 -10.494355,10.49435 -5.813873,0 -10.494355,-4.68048 -10.494355,-10.49435 0,-5.81387 4.680482,-10.49436 10.494355,-10.49436 z" />
    <path
       id="rect1-3-1-3-6-5"
       style="fill:#edf2f4;stroke-width:0.065965"
       d="m 108.49912,132.41151 c 5.81387,0 10.49435,4.68049 10.49435,10.49436 0,5.81387 -4.68048,10.49435 -10.49435,10.49435 -5.81388,0 -10.494359,-4.68048 -10.494359,-10.49435 0,-5.81387 4.680479,-10.49436 10.494359,-10.49436 z" />
    <path
       id="rect1-3-1-3-6-5-9"
       style="fill:#edf2f4;stroke-width:0.065965"
       d="m 131.79907,132.41151 c 5.81387,0 10.49435,4.68049 10.49435,10.49436 0,5.81387 -4.68048,10.49435 -10.49435,10.49435 -5.81388,0 -10.49436,-4.68048 -10.49436,-10.49435 0,-5.81387 4.68048,-10.49436 10.49436,-10.49436 z" />
    <path
       id="rect1-3-1-3-6-5-9-6"
       style="fill:#8d99ae;stroke:#edf2f4;stroke-width:1.217"
       d="m 85.807672,107.36467 h 45.382898 c 5.81387,0 10.49435,4.68048 10.49435,10.49436 0,5.81387 -4.68048,10.49435 -10.49435,10.49435 H 85.807672 c -5.813873,0 -10.494356,-4.68048 -10.494356,-10.49435 0,-5.81388 4.680483,-10.49436 10.494356,-10.49436 z" />
    <path
       id="rect1-3-1-3-6-5-9-2"
       style="fill:#edf2f4;stroke-width:0.065965"
       d="m 85.199174,156.65121 c 5.813873,0 10.494355,4.68049 10.494355,10.49436 0,5.81387 -4.680482,10.49436 -10.494355,10.49436 -5.813873,0 -10.494355,-4.68049 -10.494355,-10.49436 0,-5.81387 4.680482,-10.49436 10.494355,-10.49436 z" />
    <path
       id="rect1-3-1-3-6-5-9-4"
       style="fill:#edf2f4;stroke-width:0.065965"
       d="m 108.49912,156.65121 c 5.81387,0 10.49435,4.68049 10.49435,10.49436 0,5.81387 -4.68048,10.49436 -10.49435,10.49436 -5.81388,0 -10.494359,-4.68049 -10.494359,-10.49436 0,-5.81387 4.680479,-10.49436 10.494359,-10.49436 z" />
    <path
       id="rect1-3-1-3-6-5-9-0"
       style="fill:#ef233c;stroke-width:0.065965"
       inkscape:label="rect1-3-1-3-6-5-9-0"
       d="m 131.79907,156.65121 c 5.81387,0 10.49435,4.68049 10.49435,10.49436 0,5.81387 -4.68048,10.49436 -10.49435,10.49436 -5.81388,0 -10.49436,-4.68049 -10.49436,-10.49436 0,-5.81387 4.68048,-10.49436 10.49436,-10.49436 z" />
  </g>
</svg>
